<mxfile host="app.diagrams.net" agent="Mozilla/5.0 (Windows NT 10.0; Win64; x64) AppleWebKit/537.36 (KHTML, like Gecko) Chrome/109.0.0.0 Safari/537.36 SLBrowser/9.0.3.5211 SLBChan/105" version="24.7.6">
  <diagram name="第 1 页" id="0oubQg5g6lAY_9vZpypR">
    <mxGraphModel dx="1624" dy="1572" grid="1" gridSize="10" guides="1" tooltips="1" connect="1" arrows="1" fold="1" page="1" pageScale="1" pageWidth="1169" pageHeight="827" math="0" shadow="0">
      <root>
        <mxCell id="0" />
        <mxCell id="1" parent="0" />
        <mxCell id="r1ODKUUEIC-nD4fCLfJr-128" value="" style="rounded=0;whiteSpace=wrap;html=1;" vertex="1" parent="1">
          <mxGeometry x="988.75" y="-120" width="170" height="40" as="geometry" />
        </mxCell>
        <mxCell id="r1ODKUUEIC-nD4fCLfJr-127" value="" style="rounded=0;whiteSpace=wrap;html=1;" vertex="1" parent="1">
          <mxGeometry x="741.25" y="-120" width="160" height="40" as="geometry" />
        </mxCell>
        <mxCell id="r1ODKUUEIC-nD4fCLfJr-70" style="edgeStyle=orthogonalEdgeStyle;rounded=0;orthogonalLoop=1;jettySize=auto;html=1;exitX=0.5;exitY=0;exitDx=0;exitDy=0;entryX=0.5;entryY=1;entryDx=0;entryDy=0;" edge="1" parent="1" source="r1ODKUUEIC-nD4fCLfJr-69" target="r1ODKUUEIC-nD4fCLfJr-30">
          <mxGeometry relative="1" as="geometry" />
        </mxCell>
        <mxCell id="r1ODKUUEIC-nD4fCLfJr-69" value="" style="rounded=0;whiteSpace=wrap;html=1;rotation=90;" vertex="1" parent="1">
          <mxGeometry x="96.25" y="390" width="115" height="145" as="geometry" />
        </mxCell>
        <mxCell id="r1ODKUUEIC-nD4fCLfJr-76" style="edgeStyle=orthogonalEdgeStyle;rounded=0;orthogonalLoop=1;jettySize=auto;html=1;exitX=1;exitY=0.5;exitDx=0;exitDy=0;entryX=0;entryY=0.5;entryDx=0;entryDy=0;" edge="1" parent="1" source="r1ODKUUEIC-nD4fCLfJr-1" target="r1ODKUUEIC-nD4fCLfJr-2">
          <mxGeometry relative="1" as="geometry" />
        </mxCell>
        <mxCell id="r1ODKUUEIC-nD4fCLfJr-1" value="&lt;font style=&quot;font-size: 18px;&quot;&gt;开始&lt;/font&gt;&lt;div&gt;&lt;font size=&quot;3&quot;&gt;初始流处理&lt;/font&gt;&lt;/div&gt;" style="ellipse;whiteSpace=wrap;html=1;" vertex="1" parent="1">
          <mxGeometry y="-421.25" width="120" height="80" as="geometry" />
        </mxCell>
        <mxCell id="r1ODKUUEIC-nD4fCLfJr-78" style="edgeStyle=orthogonalEdgeStyle;rounded=0;orthogonalLoop=1;jettySize=auto;html=1;exitX=1;exitY=0.5;exitDx=0;exitDy=0;entryX=0;entryY=0.5;entryDx=0;entryDy=0;" edge="1" parent="1" source="r1ODKUUEIC-nD4fCLfJr-2" target="r1ODKUUEIC-nD4fCLfJr-77">
          <mxGeometry relative="1" as="geometry" />
        </mxCell>
        <mxCell id="r1ODKUUEIC-nD4fCLfJr-2" value="&lt;font style=&quot;font-size: 18px;&quot; face=&quot;Helvetica&quot;&gt;从Kafka获取数据&lt;/font&gt;&lt;div&gt;&lt;div style=&quot;background-color: rgb(255, 255, 255);&quot;&gt;&lt;pre style=&quot;&quot;&gt;&lt;font style=&quot;font-size: 18px;&quot; face=&quot;Helvetica&quot;&gt;JavaPairInputDStream&lt;/font&gt;&lt;/pre&gt;&lt;/div&gt;&lt;/div&gt;" style="whiteSpace=wrap;html=1;" vertex="1" parent="1">
          <mxGeometry x="160" y="-426.25" width="210" height="90" as="geometry" />
        </mxCell>
        <mxCell id="r1ODKUUEIC-nD4fCLfJr-15" value="" style="edgeStyle=orthogonalEdgeStyle;rounded=0;orthogonalLoop=1;jettySize=auto;html=1;" edge="1" parent="1" source="r1ODKUUEIC-nD4fCLfJr-4" target="r1ODKUUEIC-nD4fCLfJr-14">
          <mxGeometry relative="1" as="geometry" />
        </mxCell>
        <mxCell id="r1ODKUUEIC-nD4fCLfJr-4" value="RDD&lt;div&gt;rating的集合&lt;/div&gt;" style="whiteSpace=wrap;html=1;" vertex="1" parent="1">
          <mxGeometry x="1980" y="263.5" width="120" height="60" as="geometry" />
        </mxCell>
        <mxCell id="r1ODKUUEIC-nD4fCLfJr-19" style="edgeStyle=orthogonalEdgeStyle;rounded=0;orthogonalLoop=1;jettySize=auto;html=1;exitX=1;exitY=0.5;exitDx=0;exitDy=0;" edge="1" parent="1" source="r1ODKUUEIC-nD4fCLfJr-7" target="r1ODKUUEIC-nD4fCLfJr-17">
          <mxGeometry relative="1" as="geometry" />
        </mxCell>
        <mxCell id="r1ODKUUEIC-nD4fCLfJr-7" value="RDD&lt;div&gt;rating的集合&lt;/div&gt;" style="whiteSpace=wrap;html=1;" vertex="1" parent="1">
          <mxGeometry x="1980" y="487.5" width="120" height="60" as="geometry" />
        </mxCell>
        <mxCell id="r1ODKUUEIC-nD4fCLfJr-18" style="edgeStyle=orthogonalEdgeStyle;rounded=0;orthogonalLoop=1;jettySize=auto;html=1;exitX=1;exitY=0.5;exitDx=0;exitDy=0;" edge="1" parent="1" source="r1ODKUUEIC-nD4fCLfJr-11" target="r1ODKUUEIC-nD4fCLfJr-16">
          <mxGeometry relative="1" as="geometry" />
        </mxCell>
        <mxCell id="r1ODKUUEIC-nD4fCLfJr-11" value="RDD&lt;div&gt;reting的集合&lt;/div&gt;" style="whiteSpace=wrap;html=1;" vertex="1" parent="1">
          <mxGeometry x="1980" y="373.5" width="120" height="60" as="geometry" />
        </mxCell>
        <mxCell id="r1ODKUUEIC-nD4fCLfJr-22" value="" style="edgeStyle=orthogonalEdgeStyle;rounded=0;orthogonalLoop=1;jettySize=auto;html=1;" edge="1" parent="1" source="r1ODKUUEIC-nD4fCLfJr-14" target="r1ODKUUEIC-nD4fCLfJr-21">
          <mxGeometry relative="1" as="geometry" />
        </mxCell>
        <mxCell id="r1ODKUUEIC-nD4fCLfJr-14" value="&lt;div style=&quot;background-color:#ffffff;color:#000000;font-family:&#39;JetBrains Mono&#39;,monospace;font-size:15.0pt;&quot;&gt;&lt;pre&gt;&lt;div style=&quot;font-family: &amp;quot;JetBrains Mono&amp;quot;, monospace; font-size: 15pt;&quot;&gt;&lt;pre&gt;ratings.context()&lt;/pre&gt;&lt;/div&gt;&lt;/pre&gt;&lt;/div&gt;" style="whiteSpace=wrap;html=1;" vertex="1" parent="1">
          <mxGeometry x="2180" y="263.5" width="120" height="60" as="geometry" />
        </mxCell>
        <mxCell id="r1ODKUUEIC-nD4fCLfJr-16" value="&lt;div style=&quot;background-color:#ffffff;color:#000000;font-family:&#39;JetBrains Mono&#39;,monospace;font-size:15.0pt;&quot;&gt;&lt;pre&gt;ratings.context()&lt;/pre&gt;&lt;/div&gt;" style="whiteSpace=wrap;html=1;" vertex="1" parent="1">
          <mxGeometry x="2190" y="373.5" width="120" height="60" as="geometry" />
        </mxCell>
        <mxCell id="r1ODKUUEIC-nD4fCLfJr-17" value="&lt;div style=&quot;background-color:#ffffff;color:#000000;font-family:&#39;JetBrains Mono&#39;,monospace;font-size:15.0pt;&quot;&gt;&lt;pre&gt;ratings.context()&lt;/pre&gt;&lt;/div&gt;" style="whiteSpace=wrap;html=1;" vertex="1" parent="1">
          <mxGeometry x="2190" y="487.5" width="120" height="60" as="geometry" />
        </mxCell>
        <mxCell id="r1ODKUUEIC-nD4fCLfJr-20" value="获取SparkContext" style="text;html=1;align=center;verticalAlign=middle;resizable=0;points=[];autosize=1;strokeColor=none;fillColor=none;" vertex="1" parent="1">
          <mxGeometry x="2180" y="218.5" width="120" height="30" as="geometry" />
        </mxCell>
        <mxCell id="r1ODKUUEIC-nD4fCLfJr-21" value="." style="whiteSpace=wrap;html=1;" vertex="1" parent="1">
          <mxGeometry x="2380" y="263.5" width="120" height="60" as="geometry" />
        </mxCell>
        <mxCell id="r1ODKUUEIC-nD4fCLfJr-23" value="读取原始数据集（用户行为日志）" style="text;html=1;align=center;verticalAlign=middle;resizable=0;points=[];autosize=1;strokeColor=none;fillColor=none;" vertex="1" parent="1">
          <mxGeometry x="2340" y="218.5" width="200" height="30" as="geometry" />
        </mxCell>
        <mxCell id="r1ODKUUEIC-nD4fCLfJr-27" value="&lt;font style=&quot;font-size: 18px;&quot;&gt;实时数据源&lt;/font&gt;" style="text;html=1;align=center;verticalAlign=middle;resizable=0;points=[];autosize=1;strokeColor=none;fillColor=none;" vertex="1" parent="1">
          <mxGeometry x="81.25" y="360" width="110" height="40" as="geometry" />
        </mxCell>
        <mxCell id="r1ODKUUEIC-nD4fCLfJr-25" value="&lt;font style=&quot;font-size: 18px;&quot;&gt;kafka&lt;/font&gt;" style="rounded=0;whiteSpace=wrap;html=1;" vertex="1" parent="1">
          <mxGeometry x="93.75" y="430" width="120" height="60" as="geometry" />
        </mxCell>
        <mxCell id="r1ODKUUEIC-nD4fCLfJr-41" style="edgeStyle=orthogonalEdgeStyle;rounded=0;orthogonalLoop=1;jettySize=auto;html=1;exitX=0.5;exitY=0;exitDx=0;exitDy=0;entryX=0.5;entryY=1;entryDx=0;entryDy=0;" edge="1" parent="1" source="r1ODKUUEIC-nD4fCLfJr-30" target="r1ODKUUEIC-nD4fCLfJr-36">
          <mxGeometry relative="1" as="geometry" />
        </mxCell>
        <mxCell id="r1ODKUUEIC-nD4fCLfJr-30" value="" style="rounded=0;whiteSpace=wrap;html=1;rotation=90;" vertex="1" parent="1">
          <mxGeometry x="403.75" y="477.5" width="95" height="175" as="geometry" />
        </mxCell>
        <mxCell id="r1ODKUUEIC-nD4fCLfJr-32" value="&lt;font style=&quot;font-size: 18px;&quot;&gt;实时计算平台&lt;/font&gt;" style="text;html=1;align=center;verticalAlign=middle;resizable=0;points=[];autosize=1;strokeColor=none;fillColor=none;" vertex="1" parent="1">
          <mxGeometry x="391.25" y="472.5" width="130" height="40" as="geometry" />
        </mxCell>
        <mxCell id="r1ODKUUEIC-nD4fCLfJr-34" value="&lt;font style=&quot;font-size: 18px;&quot;&gt;Spark&lt;/font&gt;" style="rounded=0;whiteSpace=wrap;html=1;" vertex="1" parent="1">
          <mxGeometry x="391.25" y="532.5" width="115" height="60" as="geometry" />
        </mxCell>
        <mxCell id="r1ODKUUEIC-nD4fCLfJr-36" value="" style="rounded=0;whiteSpace=wrap;html=1;rotation=90;" vertex="1" parent="1">
          <mxGeometry x="666.25" y="477.5" width="105" height="175" as="geometry" />
        </mxCell>
        <mxCell id="r1ODKUUEIC-nD4fCLfJr-37" value="&lt;font style=&quot;font-size: 18px;&quot;&gt;结果存储&lt;/font&gt;" style="text;html=1;align=center;verticalAlign=middle;resizable=0;points=[];autosize=1;strokeColor=none;fillColor=none;" vertex="1" parent="1">
          <mxGeometry x="668.75" y="472.5" width="100" height="40" as="geometry" />
        </mxCell>
        <mxCell id="r1ODKUUEIC-nD4fCLfJr-39" value="&lt;font style=&quot;font-size: 18px;&quot;&gt;HDFS&lt;/font&gt;" style="rounded=0;whiteSpace=wrap;html=1;" vertex="1" parent="1">
          <mxGeometry x="658.75" y="535" width="120" height="60" as="geometry" />
        </mxCell>
        <mxCell id="r1ODKUUEIC-nD4fCLfJr-42" value="&lt;font style=&quot;font-size: 24px;&quot;&gt;计算架构图&lt;/font&gt;" style="text;html=1;align=center;verticalAlign=middle;resizable=0;points=[];autosize=1;strokeColor=none;fillColor=none;" vertex="1" parent="1">
          <mxGeometry y="290" width="140" height="40" as="geometry" />
        </mxCell>
        <mxCell id="r1ODKUUEIC-nD4fCLfJr-43" value="&lt;font style=&quot;font-size: 24px;&quot;&gt;服务架构&lt;/font&gt;" style="text;html=1;align=center;verticalAlign=middle;resizable=0;points=[];autosize=1;strokeColor=none;fillColor=none;" vertex="1" parent="1">
          <mxGeometry y="850" width="120" height="40" as="geometry" />
        </mxCell>
        <mxCell id="r1ODKUUEIC-nD4fCLfJr-59" style="edgeStyle=orthogonalEdgeStyle;rounded=0;orthogonalLoop=1;jettySize=auto;html=1;exitX=0.5;exitY=0;exitDx=0;exitDy=0;entryX=0.5;entryY=1;entryDx=0;entryDy=0;" edge="1" parent="1" source="r1ODKUUEIC-nD4fCLfJr-44" target="r1ODKUUEIC-nD4fCLfJr-52">
          <mxGeometry relative="1" as="geometry" />
        </mxCell>
        <mxCell id="r1ODKUUEIC-nD4fCLfJr-44" value="" style="rounded=0;whiteSpace=wrap;html=1;" vertex="1" parent="1">
          <mxGeometry x="91.25" y="1360" width="660" height="140" as="geometry" />
        </mxCell>
        <mxCell id="r1ODKUUEIC-nD4fCLfJr-45" value="&lt;font style=&quot;font-size: 18px;&quot;&gt;用户数据源&lt;/font&gt;" style="rounded=0;whiteSpace=wrap;html=1;" vertex="1" parent="1">
          <mxGeometry x="121.25" y="1390" width="180" height="70" as="geometry" />
        </mxCell>
        <mxCell id="r1ODKUUEIC-nD4fCLfJr-47" value="&lt;font style=&quot;font-size: 18px;&quot;&gt;电影数据源&lt;/font&gt;" style="rounded=0;whiteSpace=wrap;html=1;" vertex="1" parent="1">
          <mxGeometry x="331.25" y="1390" width="180" height="70" as="geometry" />
        </mxCell>
        <mxCell id="r1ODKUUEIC-nD4fCLfJr-49" value="&lt;font style=&quot;font-size: 18px;&quot;&gt;评分数据源&lt;/font&gt;" style="rounded=0;whiteSpace=wrap;html=1;" vertex="1" parent="1">
          <mxGeometry x="541.25" y="1390" width="180" height="70" as="geometry" />
        </mxCell>
        <mxCell id="r1ODKUUEIC-nD4fCLfJr-65" style="edgeStyle=orthogonalEdgeStyle;rounded=0;orthogonalLoop=1;jettySize=auto;html=1;exitX=0.5;exitY=0;exitDx=0;exitDy=0;entryX=0.5;entryY=1;entryDx=0;entryDy=0;" edge="1" parent="1" source="r1ODKUUEIC-nD4fCLfJr-52" target="r1ODKUUEIC-nD4fCLfJr-60">
          <mxGeometry relative="1" as="geometry" />
        </mxCell>
        <mxCell id="r1ODKUUEIC-nD4fCLfJr-52" value="" style="rounded=0;whiteSpace=wrap;html=1;" vertex="1" parent="1">
          <mxGeometry x="166.25" y="1150" width="510" height="130" as="geometry" />
        </mxCell>
        <mxCell id="r1ODKUUEIC-nD4fCLfJr-53" value="&lt;font style=&quot;font-size: 18px;&quot;&gt;计算平台&lt;/font&gt;" style="text;html=1;align=center;verticalAlign=middle;resizable=0;points=[];autosize=1;strokeColor=none;fillColor=none;" vertex="1" parent="1">
          <mxGeometry x="156.25" y="1110" width="100" height="40" as="geometry" />
        </mxCell>
        <mxCell id="r1ODKUUEIC-nD4fCLfJr-54" value="&lt;font style=&quot;font-size: 18px;&quot;&gt;Hadoop&lt;/font&gt;" style="rounded=0;whiteSpace=wrap;html=1;" vertex="1" parent="1">
          <mxGeometry x="211.25" y="1185" width="120" height="60" as="geometry" />
        </mxCell>
        <mxCell id="r1ODKUUEIC-nD4fCLfJr-55" value="&lt;font style=&quot;font-size: 18px;&quot;&gt;Spark&lt;/font&gt;" style="rounded=0;whiteSpace=wrap;html=1;" vertex="1" parent="1">
          <mxGeometry x="366.25" y="1185" width="120" height="60" as="geometry" />
        </mxCell>
        <mxCell id="r1ODKUUEIC-nD4fCLfJr-56" value="&lt;font style=&quot;font-size: 18px;&quot;&gt;Kafka&lt;/font&gt;" style="rounded=0;whiteSpace=wrap;html=1;" vertex="1" parent="1">
          <mxGeometry x="521.25" y="1185" width="120" height="60" as="geometry" />
        </mxCell>
        <mxCell id="r1ODKUUEIC-nD4fCLfJr-57" value="&lt;font style=&quot;font-size: 18px;&quot;&gt;数据源&lt;/font&gt;" style="text;html=1;align=center;verticalAlign=middle;resizable=0;points=[];autosize=1;strokeColor=none;fillColor=none;" vertex="1" parent="1">
          <mxGeometry x="81.25" y="1323" width="80" height="40" as="geometry" />
        </mxCell>
        <mxCell id="r1ODKUUEIC-nD4fCLfJr-60" value="" style="rounded=0;whiteSpace=wrap;html=1;" vertex="1" parent="1">
          <mxGeometry x="101.25" y="960" width="640" height="120" as="geometry" />
        </mxCell>
        <mxCell id="r1ODKUUEIC-nD4fCLfJr-61" value="&lt;font style=&quot;font-size: 18px;&quot;&gt;相关性数据&lt;/font&gt;" style="rounded=1;whiteSpace=wrap;html=1;" vertex="1" parent="1">
          <mxGeometry x="131.25" y="990" width="120" height="60" as="geometry" />
        </mxCell>
        <mxCell id="r1ODKUUEIC-nD4fCLfJr-62" value="&lt;font style=&quot;font-size: 18px;&quot;&gt;用户画像数据&lt;/font&gt;" style="rounded=1;whiteSpace=wrap;html=1;" vertex="1" parent="1">
          <mxGeometry x="281.25" y="990" width="120" height="60" as="geometry" />
        </mxCell>
        <mxCell id="r1ODKUUEIC-nD4fCLfJr-63" value="&lt;font style=&quot;font-size: 18px;&quot;&gt;用户兴趣数据&lt;/font&gt;" style="rounded=1;whiteSpace=wrap;html=1;" vertex="1" parent="1">
          <mxGeometry x="436.25" y="990" width="120" height="60" as="geometry" />
        </mxCell>
        <mxCell id="r1ODKUUEIC-nD4fCLfJr-64" value="&lt;span style=&quot;font-size: 18px;&quot;&gt;算法模型&lt;/span&gt;" style="rounded=1;whiteSpace=wrap;html=1;" vertex="1" parent="1">
          <mxGeometry x="591.25" y="990" width="120" height="60" as="geometry" />
        </mxCell>
        <mxCell id="r1ODKUUEIC-nD4fCLfJr-66" value="&lt;font style=&quot;font-size: 18px;&quot;&gt;数据平台&lt;/font&gt;" style="text;html=1;align=center;verticalAlign=middle;resizable=0;points=[];autosize=1;strokeColor=none;fillColor=none;" vertex="1" parent="1">
          <mxGeometry x="101.25" y="920" width="100" height="40" as="geometry" />
        </mxCell>
        <mxCell id="r1ODKUUEIC-nD4fCLfJr-74" style="edgeStyle=orthogonalEdgeStyle;rounded=0;orthogonalLoop=1;jettySize=auto;html=1;exitX=0.5;exitY=0;exitDx=0;exitDy=0;entryX=0.5;entryY=1;entryDx=0;entryDy=0;" edge="1" parent="1" source="r1ODKUUEIC-nD4fCLfJr-71" target="r1ODKUUEIC-nD4fCLfJr-30">
          <mxGeometry relative="1" as="geometry" />
        </mxCell>
        <mxCell id="r1ODKUUEIC-nD4fCLfJr-71" value="" style="rounded=0;whiteSpace=wrap;html=1;rotation=90;" vertex="1" parent="1">
          <mxGeometry x="96.25" y="620" width="115" height="145" as="geometry" />
        </mxCell>
        <mxCell id="r1ODKUUEIC-nD4fCLfJr-72" value="&lt;font style=&quot;font-size: 18px;&quot;&gt;离线数据源&lt;/font&gt;" style="text;html=1;align=center;verticalAlign=middle;resizable=0;points=[];autosize=1;strokeColor=none;fillColor=none;" vertex="1" parent="1">
          <mxGeometry x="81.25" y="590" width="110" height="40" as="geometry" />
        </mxCell>
        <mxCell id="r1ODKUUEIC-nD4fCLfJr-73" value="&lt;font style=&quot;font-size: 18px;&quot;&gt;hdfs&lt;/font&gt;" style="rounded=0;whiteSpace=wrap;html=1;" vertex="1" parent="1">
          <mxGeometry x="96.25" y="662.5" width="120" height="60" as="geometry" />
        </mxCell>
        <mxCell id="r1ODKUUEIC-nD4fCLfJr-75" value="&lt;font style=&quot;font-size: 24px;&quot;&gt;代码流程&lt;/font&gt;" style="text;html=1;align=center;verticalAlign=middle;resizable=0;points=[];autosize=1;strokeColor=none;fillColor=none;" vertex="1" parent="1">
          <mxGeometry y="-520" width="120" height="40" as="geometry" />
        </mxCell>
        <mxCell id="r1ODKUUEIC-nD4fCLfJr-105" style="edgeStyle=orthogonalEdgeStyle;rounded=0;orthogonalLoop=1;jettySize=auto;html=1;exitX=1;exitY=0.5;exitDx=0;exitDy=0;entryX=0;entryY=0.5;entryDx=0;entryDy=0;" edge="1" parent="1" source="r1ODKUUEIC-nD4fCLfJr-77" target="r1ODKUUEIC-nD4fCLfJr-104">
          <mxGeometry relative="1" as="geometry" />
        </mxCell>
        <mxCell id="r1ODKUUEIC-nD4fCLfJr-106" value="&lt;font style=&quot;font-size: 18px; background-color: rgb(255, 255, 153);&quot;&gt;map&lt;/font&gt;" style="edgeLabel;html=1;align=center;verticalAlign=middle;resizable=0;points=[];" vertex="1" connectable="0" parent="r1ODKUUEIC-nD4fCLfJr-105">
          <mxGeometry x="-0.0364" relative="1" as="geometry">
            <mxPoint as="offset" />
          </mxGeometry>
        </mxCell>
        <mxCell id="r1ODKUUEIC-nD4fCLfJr-77" value="&lt;font style=&quot;font-size: 18px;&quot;&gt;获取Kafka信息的值（消息的主要内容）&lt;/font&gt;&lt;div&gt;&lt;div style=&quot;background-color: rgb(255, 255, 255);&quot;&gt;&lt;pre style=&quot;&quot;&gt;&lt;font style=&quot;font-size: 18px;&quot; face=&quot;Helvetica&quot;&gt;JavaDStream&amp;lt;String&amp;gt;&lt;/font&gt;&lt;/pre&gt;&lt;/div&gt;&lt;/div&gt;" style="rounded=0;whiteSpace=wrap;html=1;" vertex="1" parent="1">
          <mxGeometry x="420" y="-440" width="330" height="117.5" as="geometry" />
        </mxCell>
        <mxCell id="r1ODKUUEIC-nD4fCLfJr-85" style="edgeStyle=orthogonalEdgeStyle;rounded=0;orthogonalLoop=1;jettySize=auto;html=1;exitX=1;exitY=0.5;exitDx=0;exitDy=0;entryX=0;entryY=0.5;entryDx=0;entryDy=0;" edge="1" parent="1" source="r1ODKUUEIC-nD4fCLfJr-80">
          <mxGeometry relative="1" as="geometry">
            <mxPoint x="400.71000000000004" y="-57.5" as="targetPoint" />
          </mxGeometry>
        </mxCell>
        <mxCell id="r1ODKUUEIC-nD4fCLfJr-80" value="&lt;div style=&quot;background-color: rgb(255, 255, 255);&quot;&gt;&lt;pre style=&quot;&quot;&gt;&lt;font style=&quot;font-size: 18px;&quot; face=&quot;Helvetica&quot;&gt;JavaDStream&amp;lt;Rating&amp;gt;&lt;/font&gt;&lt;/pre&gt;&lt;/div&gt;" style="rounded=0;whiteSpace=wrap;html=1;" vertex="1" parent="1">
          <mxGeometry y="-100" width="206.96" height="85" as="geometry" />
        </mxCell>
        <mxCell id="r1ODKUUEIC-nD4fCLfJr-88" value="&lt;font style=&quot;font-size: 18px;&quot;&gt;Rating的集合&lt;/font&gt;" style="text;html=1;align=center;verticalAlign=middle;resizable=0;points=[];autosize=1;strokeColor=none;fillColor=none;" vertex="1" parent="1">
          <mxGeometry x="376.25" y="-140" width="130" height="40" as="geometry" />
        </mxCell>
        <mxCell id="r1ODKUUEIC-nD4fCLfJr-90" value="&lt;font style=&quot;font-size: 18px;&quot;&gt;Rating&lt;/font&gt;" style="rounded=0;whiteSpace=wrap;html=1;" vertex="1" parent="1">
          <mxGeometry x="521.25" y="-120" width="90" height="40" as="geometry" />
        </mxCell>
        <mxCell id="r1ODKUUEIC-nD4fCLfJr-92" value="&lt;font style=&quot;font-size: 18px;&quot;&gt;Rating&lt;/font&gt;" style="rounded=0;whiteSpace=wrap;html=1;" vertex="1" parent="1">
          <mxGeometry x="521.25" y="-22.5" width="90" height="40" as="geometry" />
        </mxCell>
        <mxCell id="r1ODKUUEIC-nD4fCLfJr-116" value="" style="edgeStyle=orthogonalEdgeStyle;rounded=0;orthogonalLoop=1;jettySize=auto;html=1;" edge="1" parent="1" source="r1ODKUUEIC-nD4fCLfJr-101" target="r1ODKUUEIC-nD4fCLfJr-114">
          <mxGeometry relative="1" as="geometry" />
        </mxCell>
        <mxCell id="r1ODKUUEIC-nD4fCLfJr-101" value="&lt;pre style=&quot;&quot;&gt;&lt;font style=&quot;font-size: 18px;&quot; face=&quot;Helvetica&quot;&gt;JavaRDD&amp;lt;Rating&amp;gt;&lt;/font&gt;&lt;/pre&gt;" style="text;html=1;align=center;verticalAlign=middle;resizable=0;points=[];autosize=1;strokeColor=none;fillColor=none;" vertex="1" parent="1">
          <mxGeometry x="990.54" y="-220" width="170" height="60" as="geometry" />
        </mxCell>
        <mxCell id="r1ODKUUEIC-nD4fCLfJr-104" value="&lt;div style=&quot;background-color: rgb(255, 255, 255);&quot;&gt;&lt;pre style=&quot;&quot;&gt;&lt;font style=&quot;font-size: 18px;&quot; face=&quot;Helvetica&quot;&gt;JavaDStream&amp;lt;Rating&amp;gt;&lt;/font&gt;&lt;/pre&gt;&lt;/div&gt;" style="rounded=0;whiteSpace=wrap;html=1;" vertex="1" parent="1">
          <mxGeometry x="830" y="-423.75" width="206.96" height="85" as="geometry" />
        </mxCell>
        <mxCell id="r1ODKUUEIC-nD4fCLfJr-131" style="edgeStyle=orthogonalEdgeStyle;rounded=0;orthogonalLoop=1;jettySize=auto;html=1;entryX=0;entryY=0.5;entryDx=0;entryDy=0;" edge="1" parent="1" source="r1ODKUUEIC-nD4fCLfJr-114" target="r1ODKUUEIC-nD4fCLfJr-129">
          <mxGeometry relative="1" as="geometry">
            <mxPoint x="1186.25" y="-150" as="targetPoint" />
          </mxGeometry>
        </mxCell>
        <mxCell id="r1ODKUUEIC-nD4fCLfJr-132" style="edgeStyle=orthogonalEdgeStyle;rounded=0;orthogonalLoop=1;jettySize=auto;html=1;" edge="1" parent="1" source="r1ODKUUEIC-nD4fCLfJr-114" target="r1ODKUUEIC-nD4fCLfJr-130">
          <mxGeometry relative="1" as="geometry" />
        </mxCell>
        <mxCell id="r1ODKUUEIC-nD4fCLfJr-114" value="&lt;pre style=&quot;&quot;&gt;&lt;font style=&quot;font-size: 18px;&quot; face=&quot;Helvetica&quot;&gt;JavaRDD&amp;lt;Rating&amp;gt;&lt;/font&gt;&lt;/pre&gt;" style="text;html=1;align=center;verticalAlign=middle;resizable=0;points=[];autosize=1;strokeColor=none;fillColor=none;" vertex="1" parent="1">
          <mxGeometry x="988.75" y="-130" width="170" height="60" as="geometry" />
        </mxCell>
        <mxCell id="r1ODKUUEIC-nD4fCLfJr-129" value="&lt;font style=&quot;font-size: 18px;&quot;&gt;模型训练&lt;span style=&quot;background-color: rgb(255, 255, 153);&quot;&gt;train&lt;/span&gt;&lt;/font&gt;" style="ellipse;whiteSpace=wrap;html=1;" vertex="1" parent="1">
          <mxGeometry x="1205.25" y="-190" width="120" height="80" as="geometry" />
        </mxCell>
        <mxCell id="r1ODKUUEIC-nD4fCLfJr-130" value="&lt;font style=&quot;font-size: 18px;&quot;&gt;模型预测&lt;/font&gt;&lt;span style=&quot;color: rgb(5, 7, 59); font-size: 18px; font-weight: 600; text-align: left; background-color: rgb(255, 255, 153);&quot;&gt;recommendProducts&lt;/span&gt;" style="ellipse;whiteSpace=wrap;html=1;" vertex="1" parent="1">
          <mxGeometry x="1205.25" y="-90" width="120" height="80" as="geometry" />
        </mxCell>
        <mxCell id="r1ODKUUEIC-nD4fCLfJr-163" value="&lt;pre&gt;&lt;font style=&quot;font-size: 18px;&quot; face=&quot;Helvetica&quot;&gt;SparkContext—&amp;gt;RDD&amp;lt;String&amp;gt;—&amp;gt;&lt;/font&gt;&lt;font style=&quot;font-size: 18px;&quot;&gt;JavaRDD&amp;lt;Rating&amp;gt;&lt;/font&gt;&lt;/pre&gt;" style="rounded=1;whiteSpace=wrap;html=1;strokeColor=#B5739D;" vertex="1" parent="1">
          <mxGeometry x="146.88" y="150" width="511.87" height="40" as="geometry" />
        </mxCell>
        <mxCell id="r1ODKUUEIC-nD4fCLfJr-167" style="edgeStyle=orthogonalEdgeStyle;rounded=0;orthogonalLoop=1;jettySize=auto;html=1;exitX=1;exitY=0.5;exitDx=0;exitDy=0;exitPerimeter=0;entryX=0;entryY=0.5;entryDx=0;entryDy=0;" edge="1" parent="1" source="r1ODKUUEIC-nD4fCLfJr-165" target="r1ODKUUEIC-nD4fCLfJr-90">
          <mxGeometry relative="1" as="geometry" />
        </mxCell>
        <mxCell id="r1ODKUUEIC-nD4fCLfJr-168" style="edgeStyle=orthogonalEdgeStyle;rounded=0;orthogonalLoop=1;jettySize=auto;html=1;exitX=1;exitY=0;exitDx=0;exitDy=45;exitPerimeter=0;entryX=0;entryY=0.5;entryDx=0;entryDy=0;" edge="1" parent="1" source="r1ODKUUEIC-nD4fCLfJr-165" target="r1ODKUUEIC-nD4fCLfJr-92">
          <mxGeometry relative="1" as="geometry" />
        </mxCell>
        <mxCell id="r1ODKUUEIC-nD4fCLfJr-165" value="&lt;span style=&quot;font-size: 18px;&quot;&gt;RDD&lt;/span&gt;" style="shape=cylinder3;whiteSpace=wrap;html=1;boundedLbl=1;backgroundOutline=1;size=15;" vertex="1" parent="1">
          <mxGeometry x="410" y="-92.5" width="58.75" height="70" as="geometry" />
        </mxCell>
      </root>
    </mxGraphModel>
  </diagram>
</mxfile>
